<svg width="25" height="25" viewBox="0 0 25 25" fill="none" xmlns="http://www.w3.org/2000/svg">
<path d="M9.83558 21.5646C10.1117 21.5646 10.3356 21.3407 10.3356 21.0646V15.5704C10.3356 15.2943 10.5594 15.0704 10.8356 15.0704H14.165C14.4411 15.0704 14.665 15.2943 14.665 15.5704V21.0646C14.665 21.3407 14.8889 21.5646 15.165 21.5646H19.5768C19.8529 21.5646 20.0768 21.3407 20.0768 21.0646V12.9057H22.0208C22.4791 12.9057 22.6959 12.3406 22.3553 12.0341L12.8348 3.46558C12.6446 3.29445 12.356 3.29445 12.1658 3.46558L2.64525 12.0341C2.30465 12.3406 2.5215 12.9057 2.97974 12.9057H4.92382V21.0646C4.92382 21.3407 5.14768 21.5646 5.42382 21.5646H9.83558Z" fill="#FFBC65"/>
</svg>
